<mxfile host="Electron" agent="Mozilla/5.0 (Windows NT 10.0; Win64; x64) AppleWebKit/537.36 (KHTML, like Gecko) draw.io/24.7.17 Chrome/128.0.6613.36 Electron/32.0.1 Safari/537.36" version="24.7.17">
  <diagram name="Page-1" id="vgF-zHFHRHtyfNDpFDCN">
    <mxGraphModel dx="1050" dy="629" grid="1" gridSize="10" guides="1" tooltips="1" connect="1" arrows="1" fold="1" page="1" pageScale="1" pageWidth="850" pageHeight="1100" math="0" shadow="0">
      <root>
        <mxCell id="0" />
        <mxCell id="1" parent="0" />
        <mxCell id="1XIK0tqTRZeCsnSvA3Mt-1" value="" style="rounded=0;whiteSpace=wrap;html=1;fillColor=#e51400;fontColor=#ffffff;strokeColor=#B20000;" vertex="1" parent="1">
          <mxGeometry x="120" y="100" width="640" height="60" as="geometry" />
        </mxCell>
        <mxCell id="1XIK0tqTRZeCsnSvA3Mt-3" value="" style="rounded=0;whiteSpace=wrap;html=1;fillColor=#a2180b;fontColor=#ffffff;strokeColor=#B20000;" vertex="1" parent="1">
          <mxGeometry x="120" y="180" width="640" height="120" as="geometry" />
        </mxCell>
        <mxCell id="1XIK0tqTRZeCsnSvA3Mt-4" value="" style="rounded=0;whiteSpace=wrap;html=1;fillColor=#771208;fontColor=#ffffff;strokeColor=#B20000;" vertex="1" parent="1">
          <mxGeometry x="120" y="320" width="640" height="50" as="geometry" />
        </mxCell>
        <mxCell id="1XIK0tqTRZeCsnSvA3Mt-5" value="" style="rounded=0;whiteSpace=wrap;html=1;fillColor=#5b110b;fontColor=#ffffff;strokeColor=#B20000;" vertex="1" parent="1">
          <mxGeometry x="120" y="395" width="640" height="110" as="geometry" />
        </mxCell>
        <mxCell id="1XIK0tqTRZeCsnSvA3Mt-6" value="" style="rounded=0;whiteSpace=wrap;html=1;fillColor=#490e08;fontColor=#ffffff;strokeColor=#B20000;" vertex="1" parent="1">
          <mxGeometry x="120" y="525" width="640" height="50" as="geometry" />
        </mxCell>
        <mxCell id="1XIK0tqTRZeCsnSvA3Mt-7" value="" style="rounded=0;whiteSpace=wrap;html=1;fillColor=#fa6800;fontColor=#000000;strokeColor=#C73500;" vertex="1" parent="1">
          <mxGeometry x="120" y="600" width="200" height="80" as="geometry" />
        </mxCell>
        <mxCell id="1XIK0tqTRZeCsnSvA3Mt-8" value="" style="rounded=0;whiteSpace=wrap;html=1;fillColor=#f0a30a;fontColor=#000000;strokeColor=#BD7000;" vertex="1" parent="1">
          <mxGeometry x="340" y="600" width="200" height="80" as="geometry" />
        </mxCell>
        <mxCell id="1XIK0tqTRZeCsnSvA3Mt-9" value="" style="rounded=0;whiteSpace=wrap;html=1;fillColor=#a0522d;fontColor=#ffffff;strokeColor=#6D1F00;" vertex="1" parent="1">
          <mxGeometry x="560" y="600" width="200" height="80" as="geometry" />
        </mxCell>
        <mxCell id="1XIK0tqTRZeCsnSvA3Mt-10" value="&lt;p style=&quot;line-height: 120%;&quot;&gt;&lt;font size=&quot;1&quot; style=&quot;&quot;&gt;&lt;b style=&quot;font-size: 18px;&quot;&gt;Users&lt;/b&gt;&lt;/font&gt;&lt;/p&gt;" style="text;html=1;align=center;verticalAlign=middle;whiteSpace=wrap;rounded=0;strokeWidth=5;" vertex="1" parent="1">
          <mxGeometry x="410" y="115" width="60" height="30" as="geometry" />
        </mxCell>
        <mxCell id="1XIK0tqTRZeCsnSvA3Mt-11" value="&lt;p style=&quot;line-height: 120%;&quot;&gt;&lt;font size=&quot;1&quot; style=&quot;&quot;&gt;&lt;b style=&quot;font-size: 18px;&quot;&gt;Shell &amp;amp; Cmmand Compiler &amp;amp; Interpreter system libraries&lt;/b&gt;&lt;/font&gt;&lt;/p&gt;" style="text;html=1;align=center;verticalAlign=middle;whiteSpace=wrap;rounded=0;strokeWidth=5;" vertex="1" parent="1">
          <mxGeometry x="195" y="225" width="490" height="30" as="geometry" />
        </mxCell>
        <mxCell id="1XIK0tqTRZeCsnSvA3Mt-12" value="&lt;p style=&quot;line-height: 173%;&quot;&gt;&lt;font size=&quot;1&quot; style=&quot;&quot;&gt;&lt;b style=&quot;font-size: 18px;&quot;&gt;Sgnal Terminal Processing Terminal Driver&lt;/b&gt;&lt;/font&gt;&lt;/p&gt;" style="text;html=1;align=center;verticalAlign=middle;whiteSpace=wrap;rounded=0;strokeWidth=5;" vertex="1" parent="1">
          <mxGeometry x="130" y="405" width="180" height="90" as="geometry" />
        </mxCell>
        <mxCell id="1XIK0tqTRZeCsnSvA3Mt-15" value="&lt;p style=&quot;line-height: 120%;&quot;&gt;&lt;font size=&quot;1&quot; style=&quot;&quot;&gt;&lt;b style=&quot;font-size: 18px;&quot;&gt;System Call Interface To Kernel&lt;/b&gt;&lt;/font&gt;&lt;/p&gt;" style="text;html=1;align=center;verticalAlign=middle;whiteSpace=wrap;rounded=0;strokeWidth=5;" vertex="1" parent="1">
          <mxGeometry x="300" y="330" width="280" height="30" as="geometry" />
        </mxCell>
        <mxCell id="1XIK0tqTRZeCsnSvA3Mt-17" value="&lt;p style=&quot;line-height: 120%;&quot;&gt;&lt;font size=&quot;1&quot; style=&quot;&quot;&gt;&lt;b style=&quot;font-size: 18px;&quot;&gt;Kernal Interface To Hardware&lt;/b&gt;&lt;/font&gt;&lt;/p&gt;" style="text;html=1;align=center;verticalAlign=middle;whiteSpace=wrap;rounded=0;strokeWidth=5;" vertex="1" parent="1">
          <mxGeometry x="300" y="535" width="280" height="30" as="geometry" />
        </mxCell>
        <mxCell id="1XIK0tqTRZeCsnSvA3Mt-21" value="&lt;p style=&quot;line-height: 173%;&quot;&gt;&lt;font size=&quot;1&quot; style=&quot;&quot;&gt;&lt;b style=&quot;font-size: 18px;&quot;&gt;File System Disk &amp;amp; Tape Drive&lt;/b&gt;&lt;/font&gt;&lt;/p&gt;" style="text;html=1;align=center;verticalAlign=middle;whiteSpace=wrap;rounded=0;strokeWidth=5;" vertex="1" parent="1">
          <mxGeometry x="350" y="405" width="180" height="90" as="geometry" />
        </mxCell>
        <mxCell id="1XIK0tqTRZeCsnSvA3Mt-22" value="&lt;p style=&quot;line-height: 173%;&quot;&gt;&lt;font size=&quot;1&quot; style=&quot;&quot;&gt;&lt;b style=&quot;font-size: 18px;&quot;&gt;Cpu Sheduling&lt;/b&gt;&lt;/font&gt;&lt;/p&gt;&lt;p style=&quot;line-height: 173%;&quot;&gt;&lt;font size=&quot;1&quot; style=&quot;&quot;&gt;&lt;b style=&quot;font-size: 18px;&quot;&gt;Virtual Memory&lt;/b&gt;&lt;/font&gt;&lt;/p&gt;" style="text;html=1;align=center;verticalAlign=middle;whiteSpace=wrap;rounded=0;strokeWidth=5;" vertex="1" parent="1">
          <mxGeometry x="570" y="405" width="180" height="90" as="geometry" />
        </mxCell>
        <mxCell id="1XIK0tqTRZeCsnSvA3Mt-23" value="" style="shape=image;verticalLabelPosition=bottom;labelBackgroundColor=default;verticalAlign=top;aspect=fixed;imageAspect=0;image=https://cdn.hashnode.com/res/hashnode/image/upload/v1679590025812/3a7ae0b9-f7d4-4bba-b0a2-31dc47472668.png;" vertex="1" parent="1">
          <mxGeometry x="40" y="720" width="484" height="354" as="geometry" />
        </mxCell>
        <mxCell id="1XIK0tqTRZeCsnSvA3Mt-24" value="&lt;p style=&quot;line-height: 173%;&quot;&gt;&lt;span style=&quot;font-size: 18px;&quot;&gt;&lt;b&gt;Terminal&lt;/b&gt;&lt;/span&gt;&lt;/p&gt;&lt;p style=&quot;line-height: 173%;&quot;&gt;&lt;span style=&quot;font-size: 18px;&quot;&gt;&lt;b&gt;Controller&lt;/b&gt;&lt;/span&gt;&lt;/p&gt;" style="text;html=1;align=center;verticalAlign=middle;whiteSpace=wrap;rounded=0;strokeWidth=5;" vertex="1" parent="1">
          <mxGeometry x="155" y="615" width="130" height="50" as="geometry" />
        </mxCell>
        <mxCell id="1XIK0tqTRZeCsnSvA3Mt-25" value="&lt;p style=&quot;line-height: 173%;&quot;&gt;&lt;span style=&quot;font-size: 18px;&quot;&gt;&lt;b&gt;Device Controller Disk &amp;amp; Tape&lt;/b&gt;&lt;/span&gt;&lt;/p&gt;" style="text;html=1;align=center;verticalAlign=middle;whiteSpace=wrap;rounded=0;strokeWidth=5;" vertex="1" parent="1">
          <mxGeometry x="375" y="615" width="130" height="50" as="geometry" />
        </mxCell>
        <mxCell id="1XIK0tqTRZeCsnSvA3Mt-26" value="&lt;p style=&quot;line-height: 173%;&quot;&gt;&lt;span style=&quot;font-size: 18px;&quot;&gt;&lt;b&gt;Memory Controller Physical Memory&lt;/b&gt;&lt;/span&gt;&lt;/p&gt;" style="text;html=1;align=center;verticalAlign=middle;whiteSpace=wrap;rounded=0;strokeWidth=5;" vertex="1" parent="1">
          <mxGeometry x="577.5" y="595" width="165" height="85" as="geometry" />
        </mxCell>
      </root>
    </mxGraphModel>
  </diagram>
</mxfile>
